<?xml version="1.0" encoding="UTF-8"?>
<svg width="30px" height="30px" viewBox="0 0 30 30" version="1.1" xmlns="http://www.w3.org/2000/svg" xmlns:xlink="http://www.w3.org/1999/xlink">
    <title>2F980C41-BEFB-42DC-A70C-8BA69120FCC6</title>
    <defs>
        <filter color-interpolation-filters="auto" id="filter-1">
            <feColorMatrix in="SourceGraphic" type="matrix" values="0 0 0 0 1.000000 0 0 0 0 1.000000 0 0 0 0 1.000000 0 0 0 1.000000 0"></feColorMatrix>
        </filter>
    </defs>
    <g id="Concierge-test" stroke="none" stroke-width="1" fill="none" fill-rule="evenodd">
        <g id="Concierge-Report" transform="translate(-1264.000000, -2304.000000)">
            <g id="Group-2" transform="translate(0.000000, 2229.000000)">
                <g id="Group-10" transform="translate(1264.000000, 75.000000)">
                    <circle id="Oval" fill="#0A66C2" cx="15" cy="15" r="15"></circle>
                    <g filter="url(#filter-1)" id="linkedin-in-brands">
                        <g transform="translate(8.000000, 7.000000)">
                            <path d="M3.13375,14 L0.23125,14 L0.23125,4.65291634 L3.13375,4.65291634 L3.13375,14 Z M1.6809375,3.37788788 C0.7528125,3.37788788 0,2.60912072 0,1.680975 C0,0.752598138 0.752581363,0 1.6809375,0 C2.60929364,0 3.361875,0.752598138 3.361875,1.680975 C3.361875,2.60912072 2.60875,3.37788788 1.6809375,3.37788788 Z M13.996875,14 L11.100625,14 L11.100625,9.44989843 C11.100625,8.36549922 11.07875,6.97484318 9.5915625,6.97484318 C8.0825,6.97484318 7.85125,8.15299448 7.85125,9.37177168 L7.85125,14 L4.951875,14 L4.951875,4.65291634 L7.735625,4.65291634 L7.735625,5.92794481 L7.77625,5.92794481 C8.16375,5.19355341 9.1103125,4.41853611 10.5225,4.41853611 C13.46,4.41853611 14,6.35295429 14,8.86551038 L14,14 L13.996875,14 Z" id="Shape" fill="#000000" fill-rule="nonzero"></path>
                        </g>
                    </g>
                </g>
            </g>
        </g>
    </g>
</svg>