<?xml version="1.0" encoding="UTF-8"?>
<svg width="30px" height="30px" viewBox="0 0 30 30" version="1.1" xmlns="http://www.w3.org/2000/svg" xmlns:xlink="http://www.w3.org/1999/xlink">
    <title>C555C6BC-2CFC-44B1-BCF5-5DC38282500F</title>
    <defs>
        <filter color-interpolation-filters="auto" id="filter-1">
            <feColorMatrix in="SourceGraphic" type="matrix" values="0 0 0 0 0.898039 0 0 0 0 0.007843 0 0 0 0 0.137255 0 0 0 1.000000 0"></feColorMatrix>
        </filter>
    </defs>
    <g id="Concierge-test" stroke="none" stroke-width="1" fill="none" fill-rule="evenodd">
        <g id="Concierge-Report" transform="translate(-1300.000000, -2304.000000)">
            <g id="Group-2" transform="translate(0.000000, 2229.000000)">
                <g id="Oval" transform="translate(1300.000000, 75.000000)">
                    <circle fill="#FFFFFF" cx="15" cy="15" r="15"></circle>
                    <g id="pinterest-brands" filter="url(#filter-1)">
                        <g>
                            <path d="M30,15 C30,23.2862903 23.2862903,30 15,30 C13.4516129,30 11.9637097,29.7641129 10.5604839,29.328629 C11.171371,28.3306452 12.0846774,26.6975806 12.4233871,25.3971774 C12.6048387,24.6955645 13.3548387,21.828629 13.3548387,21.828629 C13.8447581,22.7600806 15.2721774,23.5524194 16.7903226,23.5524194 C21.3145161,23.5524194 24.5745968,19.391129 24.5745968,14.2197581 C24.5745968,9.26612903 20.5282258,5.55846774 15.3266129,5.55846774 C8.85483871,5.55846774 5.41330645,9.90120968 5.41330645,14.6370968 C5.41330645,16.8387097 6.58669355,19.578629 8.45564516,20.4495968 C8.73991935,20.5826613 8.89112903,20.5221774 8.95766129,20.25 C9.00604839,20.0443548 9.26008065,19.0221774 9.375,18.5504032 C9.41129032,18.3991935 9.39314516,18.266129 9.27217742,18.1209677 C8.66129032,17.3649194 8.16532258,15.9858871 8.16532258,14.6975806 C8.16532258,11.3891129 10.6693548,8.18951613 14.9395161,8.18951613 C18.6229839,8.18951613 21.2056452,10.6995968 21.2056452,14.2923387 C21.2056452,18.3508065 19.1552419,21.1633065 16.4879032,21.1633065 C15.0181452,21.1633065 13.9112903,19.9475806 14.2681452,18.453629 C14.6915323,16.6693548 15.5080645,14.7459677 15.5080645,13.4576613 C15.5080645,12.3084677 14.891129,11.3467742 13.608871,11.3467742 C12.1028226,11.3467742 10.8931452,12.9012097 10.8931452,14.9879032 C10.8931452,16.3185484 11.3407258,17.2137097 11.3407258,17.2137097 C11.3407258,17.2137097 9.85887097,23.4919355 9.58669355,24.6653226 C9.28427419,25.9596774 9.40524194,27.7862903 9.53225806,28.9717742 C3.95564516,26.7883065 0,21.3568548 0,15 C0,6.71370968 6.71370968,0 15,0 C23.2862903,0 30,6.71370968 30,15 Z" id="Path" fill="#000000" fill-rule="nonzero"></path>
                        </g>
                    </g>
                </g>
            </g>
        </g>
    </g>
</svg>