<?xml version="1.0" encoding="UTF-8"?>
<svg width="104px" height="27px" viewBox="0 0 104 27" version="1.1" xmlns="http://www.w3.org/2000/svg" xmlns:xlink="http://www.w3.org/1999/xlink">
    <title>D73E657D-0806-4666-B7DF-6C4D604C71D2</title>
    <g id="Concierge-test" stroke="none" stroke-width="1" fill="none" fill-rule="evenodd">
        <g id="Concierge-Report" transform="translate(-169.000000, -62.000000)" fill="#84CB08" fill-rule="nonzero">
            <path d="M173.72,83 L173.72,76.88 L178.46,76.88 C178.73,76.88 179,76.88 179.27,76.85 L183.56,83 L187.76,83 L182.93,76.1 C185.78,74.99 187.4,72.65 187.4,69.47 C187.4,64.82 183.98,62 178.46,62 L169.82,62 L169.82,83 L173.72,83 Z M178.28,73.67 L173.72,73.67 L173.72,65.3 L178.28,65.3 C181.7,65.3 183.47,66.83 183.47,69.47 C183.47,72.11 181.7,73.67 178.28,73.67 Z M198.92,83.21 C201.68,83.21 203.93,82.31 205.37,80.6 L203.36,78.29 C202.22,79.46 200.81,80.03 199.01,80.03 C196.22,80.03 194.27,78.53 193.82,76.19 L206.39,76.19 C206.42,75.83 206.45,75.38 206.45,75.08 C206.45,70.07 203.03,66.8 198.35,66.8 C193.58,66.8 190.07,70.22 190.07,74.99 C190.07,79.76 193.55,83.21 198.92,83.21 Z M202.88,73.7 L193.79,73.7 C194.15,71.36 195.92,69.8 198.35,69.8 C200.81,69.8 202.58,71.39 202.88,73.7 Z M213.8,88.82 L213.8,81.05 C215.09,82.52 216.89,83.21 218.93,83.21 C223.61,83.21 227.06,79.97 227.06,74.99 C227.06,70.04 223.61,66.8 218.93,66.8 C216.74,66.8 214.88,67.55 213.62,69.08 L213.62,66.98 L210.05,66.98 L210.05,88.82 L213.8,88.82 Z M218.51,80 C215.81,80 213.74,78.05 213.74,74.99 C213.74,71.93 215.81,69.98 218.51,69.98 C221.21,69.98 223.25,71.93 223.25,74.99 C223.25,78.05 221.21,80 218.51,80 Z M237.83,83.21 C242.81,83.21 246.38,79.79 246.38,74.99 C246.38,70.19 242.81,66.8 237.83,66.8 C232.91,66.8 229.31,70.19 229.31,74.99 C229.31,79.79 232.91,83.21 237.83,83.21 Z M237.83,80 C235.13,80 233.09,78.05 233.09,74.99 C233.09,71.93 235.13,69.98 237.83,69.98 C240.56,69.98 242.6,71.93 242.6,74.99 C242.6,78.05 240.56,80 237.83,80 Z M253.73,83 L253.73,75.23 C253.73,71.96 255.53,70.28 258.38,70.28 C258.65,70.28 258.92,70.31 259.25,70.37 L259.25,66.8 C256.58,66.8 254.63,67.64 253.55,69.32 L253.55,66.98 L249.98,66.98 L249.98,83 L253.73,83 Z M268.61,83.21 C269.96,83.21 271.31,82.85 272.21,82.13 L271.16,79.46 C270.59,79.91 269.84,80.12 269.06,80.12 C267.62,80.12 266.84,79.28 266.84,77.72 L266.84,70.1 L271.13,70.1 L271.13,67.1 L266.84,67.1 L266.84,63.44 L263.09,63.44 L263.09,67.1 L260.45,67.1 L260.45,70.1 L263.09,70.1 L263.09,77.81 C263.09,81.35 265.1,83.21 268.61,83.21 Z" id="Report"></path>
        </g>
    </g>
</svg>