<?xml version="1.0" encoding="UTF-8"?>
<svg width="37px" height="43px" viewBox="0 0 37 43" version="1.1" xmlns="http://www.w3.org/2000/svg" xmlns:xlink="http://www.w3.org/1999/xlink">
    <title>834C9C15-1646-43F7-9E37-836A88C4CF82</title>
    <g id="Concierge-test" stroke="none" stroke-width="1" fill="none" fill-rule="evenodd">
        <g id="Concierge-Report" transform="translate(-735.000000, -2274.000000)" fill="#84CB08" fill-rule="nonzero">
            <g id="Group-2" transform="translate(0.000000, 2229.000000)">
                <path d="M743.043478,88 L743.043478,75.4685714 L752.819398,75.4685714 C753.376254,75.4685714 753.93311,75.4685714 754.489967,75.4071429 L763.337793,88 L772,88 L762.038462,73.8714286 C767.916388,71.5985714 771.257525,66.8071429 771.257525,60.2957143 C771.257525,50.7742857 764.204013,45 752.819398,45 L735,45 L735,88 L743.043478,88 Z M751.821538,69 L742,69 L742,52 L751.821538,52 C759.187692,52 763,55.1075269 763,60.4695341 C763,65.8315412 759.187692,69 751.821538,69 Z" id="R"></path>
            </g>
        </g>
    </g>
</svg>