<?xml version="1.0" encoding="UTF-8"?>
<svg width="30px" height="30px" viewBox="0 0 30 30" version="1.1" xmlns="http://www.w3.org/2000/svg" xmlns:xlink="http://www.w3.org/1999/xlink">
    <title>91411BD0-F820-4CD4-825D-86FE65009384</title>
    <g id="Concierge-test" stroke="none" stroke-width="1" fill="none" fill-rule="evenodd">
        <g id="Concierge-Report" transform="translate(-1192.000000, -2304.000000)">
            <g id="Group-2" transform="translate(0.000000, 2229.000000)">
                <g id="youtube" transform="translate(1192.000000, 75.000000)">
                    <circle id="Oval" fill="#FFFFFF" cx="15" cy="15" r="12.375"></circle>
                    <polygon id="Path" fill="#DD2925" fill-rule="nonzero" points="13.1316376 17.8102112 18.0109406 15 13.1316376 12.1897888"></polygon>
                    <path d="M15,0 C23.2830047,0 30,6.71699525 30,15 C30,23.2830047 23.2830047,30 15,30 C6.71699525,30 0,23.2830047 0,15 C0,6.71699525 6.71699525,0 15,0 Z M15.1740927,8.43793314 L14.8259073,8.43791659 C13.8426795,8.44156179 8.9819336,8.47710243 7.66548158,8.82362367 C6.87789914,9.03968813 6.22924805,9.68833922 6.01318359,10.4912567 C5.66700375,11.8064118 5.63119204,14.3875081 5.62748738,14.9074539 L5.62748738,15.0929941 C5.63119204,15.6153789 5.66700375,18.2075422 6.01318359,19.5087433 C6.22947691,20.3116608 6.8625641,20.9449768 7.66548158,21.1610413 C8.99569586,21.5213247 13.8455026,21.5582769 14.8263417,21.5620669 L15.1740927,21.5620834 C16.1573205,21.5584382 21.0180664,21.5228976 22.3345184,21.1763763 C23.1374359,20.9603119 23.7705231,20.3272247 23.9868164,19.5243073 C24.3328633,18.2091522 24.3686613,15.6278719 24.3723645,15.1078881 L24.3725408,14.8530426 C24.3691307,14.2022314 24.3329015,11.7558289 23.9868164,10.4912567 C23.7705231,9.68833922 23.1374359,9.05502316 22.3345184,8.83895871 C21.0180664,8.47867525 16.1573205,8.4417231 15.1740927,8.43793314 Z" id="Combined-Shape" fill="#DD2925" fill-rule="nonzero"></path>
                </g>
            </g>
        </g>
    </g>
</svg>